<?xml version="1.0" standalone="no"?>
<!DOCTYPE svg PUBLIC "-//W3C//DTD SVG 20010904//EN"
 "http://www.w3.org/TR/2001/REC-SVG-20010904/DTD/svg10.dtd">
<svg version="1.0" xmlns="http://www.w3.org/2000/svg"
 width="920.000000pt" height="920.000000pt" viewBox="0 0 920.000000 920.000000"
 preserveAspectRatio="xMidYMid meet">

<g transform="translate(0.000000,920.000000) scale(0.100000,-0.100000)"
fill="#000000" stroke="none">
<path d="M3490 7401 c-192 -41 -308 -252 -240 -436 22 -58 60 -98 1284 -1322
l1261 -1263 -1256 -1257 c-1016 -1018 -1261 -1268 -1280 -1308 -34 -72 -34
-210 -1 -274 36 -66 106 -136 165 -162 74 -34 201 -34 272 0 41 19 310 283
1437 1410 1551 1549 1453 1441 1452 1586 0 155 120 23 -1433 1578 -1222 1223
-1393 1391 -1446 1417 -64 32 -153 45 -215 31z"/>
</g>
</svg>
